<svg width="18" height="18" viewBox="0 0 18 18" fill="none" xmlns="http://www.w3.org/2000/svg">
<path d="M0.292893 15.4958C-0.0976311 15.8863 -0.0976311 16.5195 0.292893 16.91C0.683418 17.3005 1.31658 17.3005 1.70711 16.91L0.292893 15.4958ZM17.2028 1.00009C17.2028 0.447801 16.7551 8.53412e-05 16.2028 8.53412e-05L7.2028 8.53412e-05C6.65051 8.53412e-05 6.2028 0.447801 6.2028 1.00009C6.2028 1.55237 6.65051 2.00009 7.2028 2.00009H15.2028V10.0001C15.2028 10.5524 15.6505 11.0001 16.2028 11.0001C16.7551 11.0001 17.2028 10.5524 17.2028 10.0001L17.2028 1.00009ZM1.70711 16.91L16.9099 1.70719L15.4957 0.292979L0.292893 15.4958L1.70711 16.91Z" fill="black"/>
</svg>
