<svg width="13" height="13" viewBox="0 0 13 13" fill="none" xmlns="http://www.w3.org/2000/svg">
<path d="M0.46967 11.6726C0.176777 11.9654 0.176777 12.4403 0.46967 12.7332C0.762563 13.0261 1.23744 13.0261 1.53033 12.7332L0.46967 11.6726ZM12.9528 1.00009C12.9528 0.585875 12.617 0.250089 12.2028 0.250089L5.45279 0.250089C5.03858 0.250089 4.70279 0.585875 4.70279 1.00009C4.70279 1.4143 5.03858 1.75009 5.45279 1.75009L11.4528 1.75009L11.4528 7.75009C11.4528 8.1643 11.7886 8.50009 12.2028 8.50009C12.617 8.50009 12.9528 8.1643 12.9528 7.75009L12.9528 1.00009ZM1.53033 12.7332L12.7331 1.53042L11.6725 0.469759L0.46967 11.6726L1.53033 12.7332Z" fill="#797979"/>
</svg>
